<mxfile host="app.diagrams.net" modified="2024-04-22T06:31:41.887Z" agent="Mozilla/5.0 (Windows NT 10.0; Win64; x64; rv:126.0) Gecko/20100101 Firefox/126.0" version="24.2.7" etag="j0IeCuXAcg4_mVfY9RDV" type="github">
  <diagram name="Page-1" id="Gux9gcwu9RayaZbnufFR">
    <mxGraphModel>
      <root>
        <mxCell id="0" />
        <mxCell id="1" parent="0" />
      </root>
    </mxGraphModel>
  </diagram>
</mxfile>
